<svg xmlns="http://www.w3.org/2000/svg" preserveAspectRatio="xMidYMid" width="16" height="16" viewBox="0 0 16 16">
    <defs>
        <style>
            .cls-1 {
            fill: #000;
            fill-rule: evenodd;
            }
        </style>
    </defs>
    <path d="M8.000,16.000 C3.589,16.000 0.000,12.411 0.000,8.000 C0.000,3.589 3.589,0.000 8.000,0.000 C12.411,0.000 16.000,3.589 16.000,8.000 C16.000,12.411 12.411,16.000 8.000,16.000 ZM8.000,2.000 C4.691,2.000 2.000,4.691 2.000,8.000 C2.000,11.309 4.691,14.000 8.000,14.000 C11.309,14.000 14.000,11.309 14.000,8.000 C14.000,4.691 11.309,2.000 8.000,2.000 ZM7.000,11.414 L3.586,8.000 L5.000,6.586 L7.000,8.586 L11.000,4.586 L12.414,6.000 L7.000,11.414 Z"
          class="cls-1"/>
</svg>
