<svg xmlns="http://www.w3.org/2000/svg" preserveAspectRatio="xMidYMid" width="16" height="16" viewBox="0 0 16 16">
    <defs>
        <style>
            .cls-1 {
            fill: #000;
            fill-rule: evenodd;
            }
        </style>
    </defs>
    <path d="M8.000,0.000 C3.600,0.000 0.000,3.600 0.000,8.000 C0.000,12.400 3.600,16.000 8.000,16.000 C12.400,16.000 16.000,12.400 16.000,8.000 C16.000,3.600 12.400,0.000 8.000,0.000 ZM8.000,12.000 C7.400,12.000 7.000,11.600 7.000,11.000 C7.000,10.400 7.400,10.000 8.000,10.000 C8.600,10.000 9.000,10.400 9.000,11.000 C9.000,11.600 8.600,12.000 8.000,12.000 ZM9.000,9.000 L7.000,9.000 L7.000,4.000 L9.000,4.000 L9.000,9.000 Z"
          class="cls-1"/>
</svg>
